<?xml version="1.0" encoding="UTF-8"?>
<svg id="Layer_1" data-name="Layer 1" xmlns="http://www.w3.org/2000/svg" viewBox="0 0 450 72">
  <defs>
    <style>
      .cls-1 {
        fill: #2a2a2a;
      }
    </style>
  </defs>
  <path class="cls-1" d="M36,13.42l26.29,52.58H9.71L36,13.42M36,0L0,72h72L36,0h0Z"/>
  <path class="cls-1" d="M36,6c16.54,0,30,13.46,30,30v30H6v-30c0-16.54,13.46-30,30-30M36,0h0C16.12,0,0,16.12,0,36v36h72v-36C72,16.12,55.88,0,36,0h0Z"/>
  <g>
    <path class="cls-1" d="M104.93,17.86h4.52l11.29,27.87c1.51,3.74,2.5,6.19,4.06,8.06v.21h-8.63v-.21c.99-1.72.42-4.58-.88-7.85l-1.09-2.76h-15.08l-1.09,2.86c-1.3,3.38-1.77,5.98-.62,7.75v.21h-7.44v-.21c1.66-1.82,2.7-4.37,4.06-7.8l10.92-28.13ZM112.78,39.6l-6.08-15.39h-.26l-5.93,15.39h12.27Z"/>
    <path class="cls-1" d="M125.62,17.86v-.26l5.98-.68h.16v30.99c0,2.96.16,4.47,1.09,5.88v.21h-7.02v-.21c.94-1.4,1.09-2.91,1.09-5.88v-24.44c0-2.86-.31-4.26-1.3-5.62Z"/>
    <path class="cls-1" d="M144.13,53.79v.21h-7.02v-.21c.94-1.4,1.09-2.91,1.09-5.88v-12.17c0-2.86-.31-4.26-1.3-5.62v-.26l5.98-.68h.16v18.72c0,2.96.16,4.47,1.09,5.88ZM137.11,21.55c0-1.82,1.51-3.38,3.38-3.38s3.38,1.56,3.38,3.38c0,1.92-1.51,3.43-3.38,3.43s-3.38-1.51-3.38-3.43Z"/>
    <path class="cls-1" d="M148.5,61.44l.52-2.86c2.24,1.46,4.99,2.39,7.9,2.39,5.15,0,9-2.55,9-9.05v-2.76h-.31c-1.66,2.81-4.37,4.37-7.75,4.37-5.67,0-10.35-4.68-10.35-12.01s5.2-12.79,11.44-12.79c2.7,0,5.51,1.14,7.23,3.54h.26l1.09-2.91h3.17v22.46c0,8.89-5.77,12.95-12.69,12.95-3.9,0-7.12-1.4-9.52-3.33ZM165.87,42.25v-2.34c0-4.84-2.44-7.96-6.29-7.96-4.11,0-7.12,3.69-7.12,9.1,0,4.99,2.76,8.74,6.97,8.74,3.64,0,6.45-3.12,6.45-7.54Z"/>
    <path class="cls-1" d="M175.59,30.13v-.26l5.98-.68h.16v3.8h.26c1.82-2.81,4.26-4.26,7.23-4.26,4.63,0,8.16,3.17,8.16,9.41v9.78c0,2.96.16,4.42,1.14,5.88v.21h-7.02v-.21c.94-1.4,1.09-2.91,1.09-5.88v-9.67c0-3.8-1.92-5.72-4.68-5.72-3.07,0-6.19,2.76-6.19,7.12v8.27c0,2.96.16,4.47,1.09,5.88v.21h-7.02v-.21c.94-1.4,1.09-2.91,1.09-5.88v-12.17c0-2.86-.31-4.26-1.3-5.62Z"/>
    <path class="cls-1" d="M221.66,31.22l-.68-1.87h3.59l6.24,19.45h.21l4.32-13.31c.83-2.7,1.09-4.47.36-5.98v-.16h5.36v.16c-1.46,1.61-2.13,3.33-3.02,6.08l-6.14,18.41h-2.7l-6.08-19.03h-.21l-6.6,19.03h-2.65l-5.98-18.46c-.83-2.6-1.56-4.52-2.91-6.03v-.16h6.24v.16c-.99,1.56-.62,3.33.26,5.98l4.16,13.16h.21l6.03-17.42Z"/>
    <path class="cls-1" d="M248.81,53.84v.16h-5.72v-.16c.99-1.46,1.09-2.91,1.09-5.82v-12.27c0-2.81-.16-4.37-1.3-5.77v-.21l4.68-.57h.16v18.82c0,2.91.1,4.37,1.09,5.82Z"/>
    <path class="cls-1" d="M256.29,47.97v-16.02h-5.04v-2.29c4.68-.1,5.51-1.04,5.72-6.03h2.81v5.72h6.97v2.6h-6.97v15.91c0,2.86,1.35,4,3.59,3.95,1.14,0,2.13-.21,3.33-.78l.36,1.92c-1.4,1.04-2.96,1.56-4.63,1.56-3.38,0-6.14-1.92-6.14-6.55Z"/>
    <path class="cls-1" d="M269.92,17.75v-.21l4.68-.62h.1v16.69h.21c1.87-3.02,4.58-4.78,7.8-4.78,4.32,0,8.11,2.91,8.11,9.41v9.78c0,2.91.1,4.32,1.14,5.82v.16h-5.72v-.16c.99-1.46,1.09-2.91,1.09-5.82v-9.72c0-4.11-1.92-6.6-5.46-6.66-3.54,0-7.18,3.22-7.18,7.85v8.53c0,2.91.1,4.37,1.14,5.82v.16h-5.77v-.16c.99-1.46,1.14-2.91,1.14-5.82v-24.49c0-2.86-.21-4.42-1.3-5.77Z"/>
    <path class="cls-1" d="M301.59,18.07v-.21h13.21c11.7,0,19.45,7.28,19.45,18.04s-7.75,18.1-19.45,18.1h-13.21v-.21c1.3-1.87,1.61-3.95,1.61-7.8v-20.12c0-3.8-.31-5.98-1.61-7.8ZM328.63,35.9c0-9.78-5.98-14.56-15.03-14.56h-5.25v29.17h5.25c9.05,0,15.03-4.84,15.03-14.61Z"/>
    <path class="cls-1" d="M336.94,41.52c0-7.33,4.89-12.79,11.49-12.79,5.67,0,9.83,3.59,9.83,10.3v1.98h-16.54c.21,6.19,3.8,9.57,9.05,9.57,2.76,0,4.94-.78,7.23-2.34l.57,2.55c-2.44,2.5-5.41,3.85-9.05,3.85-7.12,0-12.58-5.1-12.58-13.1ZM353.48,37.93c-.16-3.8-2.24-6.03-5.36-6.03-3.43,0-5.56,2.24-6.19,6.03h11.54Z"/>
    <path class="cls-1" d="M361.12,52.28v-4.73h.31c1.92,2.55,4.52,3.74,7.18,3.74,2.44,0,4.89-1.04,4.89-3.38,0-1.66-1.09-2.39-3.43-3.43l-3.59-1.56c-3.28-1.46-4.84-3.69-4.84-6.55,0-4.37,3.8-7.64,9-7.64,2.34,0,4.79.62,6.55,1.61v4.68h-.26c-1.51-1.98-3.74-2.96-6.24-2.96s-4.78,1.2-4.78,3.33c0,1.61.94,2.55,3.28,3.54l3.9,1.61c3.12,1.3,4.73,3.33,4.73,6.4,0,4.63-4.06,7.7-9.1,7.7-2.76,0-5.51-.83-7.59-2.34Z"/>
    <path class="cls-1" d="M388.27,53.79v.21h-7.02v-.21c.94-1.4,1.09-2.91,1.09-5.88v-12.17c0-2.86-.31-4.26-1.3-5.62v-.26l5.98-.68h.16v18.72c0,2.96.16,4.47,1.09,5.88ZM381.25,21.55c0-1.82,1.51-3.38,3.38-3.38s3.38,1.56,3.38,3.38c0,1.92-1.51,3.43-3.38,3.43s-3.38-1.51-3.38-3.43Z"/>
    <path class="cls-1" d="M392.64,61.44l.52-2.86c2.24,1.46,4.99,2.39,7.9,2.39,5.15,0,9-2.55,9-9.05v-2.76h-.31c-1.66,2.81-4.37,4.37-7.75,4.37-5.67,0-10.35-4.68-10.35-12.01s5.2-12.79,11.44-12.79c2.71,0,5.51,1.14,7.23,3.54h.26l1.09-2.91h3.17v22.46c0,8.89-5.77,12.95-12.69,12.95-3.9,0-7.12-1.4-9.52-3.33ZM410,42.25v-2.34c0-4.84-2.44-7.96-6.29-7.96-4.11,0-7.12,3.69-7.12,9.1,0,4.99,2.76,8.74,6.97,8.74,3.64,0,6.45-3.12,6.45-7.54Z"/>
    <path class="cls-1" d="M419.73,30.13v-.26l5.98-.68h.16v3.8h.26c1.82-2.81,4.26-4.26,7.23-4.26,4.63,0,8.16,3.17,8.16,9.41v9.78c0,2.96.16,4.42,1.14,5.88v.21h-7.02v-.21c.94-1.4,1.09-2.91,1.09-5.88v-9.67c0-3.8-1.92-5.72-4.68-5.72-3.07,0-6.19,2.76-6.19,7.12v8.27c0,2.96.16,4.47,1.09,5.88v.21h-7.02v-.21c.94-1.4,1.09-2.91,1.09-5.88v-12.17c0-2.86-.31-4.26-1.3-5.62Z"/>
  </g>
  <g>
    <path class="cls-1" d="M439.74,18.63h-.56c-.7,0-1.06.14-1.25.47h-.05v-1.1h4.66v1.1h-.04c-.19-.33-.54-.47-1.25-.47h-.57v3.71c0,.58.05.89.29,1.18v.04h-1.53v-.04c.23-.28.29-.6.29-1.18v-3.71Z"/>
    <path class="cls-1" d="M444.19,19.01h-.05v3.33c0,.58.05.89.25,1.18v.04h-1.21v-.04c.19-.29.24-.59.25-1.18v-3.13c0-.57-.06-.89-.25-1.18v-.03h1.58l1.67,4.38h.04l1.65-4.38h1.52v.03c-.2.3-.26.6-.25,1.18v3.13c0,.58.05.89.25,1.18v.04h-1.43v-.04c.19-.29.24-.59.25-1.18v-3.29h-.05l-1.69,4.51h-.81l-1.73-4.55Z"/>
  </g>
</svg>